<svg width="1123" height="1124" viewBox="0 0 1123 1124" fill="none" xmlns="http://www.w3.org/2000/svg">
<path d="M970.529 663.031C968.124 672.701 965.362 682.358 962.233 691.987C890.297 913.381 652.506 1034.54 431.112 962.607C209.717 890.671 88.5568 652.88 160.492 431.486C232.428 210.091 470.219 88.9305 691.613 160.866C707.615 166.065 723.086 172.127 737.993 178.983C718.562 197.709 703.307 221.349 694.391 248.791C665.378 338.084 714.244 433.991 803.537 463.004C804.388 463.28 805.239 463.549 806.091 463.812C791.668 545.907 839.499 628.202 921.052 654.7C937.454 660.029 954.104 662.731 970.529 663.031Z" fill="#F0AD4B" stroke="#5E350F" stroke-width="48"/>
<path d="M150.175 572H554.675L358.175 926.5L238.675 832.5L166.675 702L150.175 572Z" fill="#C75C28"/>
<path d="M359.181 211L561.431 561.308L156.175 568.384L177.831 417.894L254.847 290.29L359.181 211Z" fill="#72892F"/>
<path d="M789.425 926.558L587.175 576.25L802.175 569.5L868.175 620.5L974.675 672.5L893.758 847.268L789.425 926.558Z" fill="#72892F"/>
<path d="M811.175 544.5L587.175 544.5L683.675 371.001L723.675 407L823.175 501.501L811.175 544.5Z" fill="#C75C28"/>
<path d="M801.175 562H162.175" stroke="#5E350F" stroke-width="48" stroke-linecap="square"/>
<path d="M767.738 912.145L363.988 212.829" stroke="#5E350F" stroke-width="48" stroke-linecap="square"/>
<path d="M343.204 900.144L331.204 920.929L372.773 944.929L384.773 924.144L343.204 900.144ZM706.511 366.877C713.139 355.398 709.206 340.72 697.727 334.093C686.248 327.465 671.569 331.398 664.942 342.877L706.511 366.877ZM384.773 924.144L586.648 574.487L545.079 550.487L343.204 900.144L384.773 924.144ZM586.648 574.487L687.585 399.658L646.016 375.658L545.079 550.487L586.648 574.487ZM687.585 399.658L700.203 377.804L658.633 353.804L646.016 375.658L687.585 399.658ZM700.203 377.804L706.511 366.877L664.942 342.877L658.633 353.804L700.203 377.804Z" fill="#5E350F"/>
<path d="M970.53 663.032C968.125 672.701 965.362 682.358 962.233 691.987C890.298 913.382 652.507 1034.54 431.112 962.607C209.718 890.671 88.5573 652.88 160.493 431.486C232.428 210.091 470.219 88.9305 691.614 160.866C707.616 166.065 723.087 172.127 737.994 178.983C718.562 197.709 703.308 221.349 694.391 248.791C665.378 338.085 714.245 433.991 803.538 463.004C804.388 463.28 805.24 463.549 806.091 463.812C791.669 545.907 839.5 628.202 921.052 654.7C937.455 660.029 954.104 662.732 970.53 663.032Z" stroke="#5E350F" stroke-width="48"/>
</svg>
